# Blender v2.90.1 OBJ File: 'light_bulb.blend'
# www.blender.org
o light_bulb
v 0.000000 0.152676 -0.250952
v 0.000000 0.514431 -0.250952
v 0.000000 0.152676 0.250952
v 0.000000 0.514431 0.250952
v -0.147506 0.152676 0.203024
v -0.147506 0.514431 0.203024
v -0.238669 0.152676 0.077548
v -0.238669 0.514431 0.077548
v -0.238669 0.152676 -0.077548
v -0.238669 0.514431 -0.077548
v -0.147506 0.152676 -0.203024
v -0.147506 0.514431 -0.203024
v 0.000000 0.083801 0.164311
v -0.096579 0.083801 0.132930
v -0.156269 0.083801 0.050775
v -0.156269 0.083801 -0.050775
v -0.096579 0.083801 -0.132930
v 0.000000 0.011932 0.085421
v -0.050209 0.011932 0.069107
v -0.081240 0.011932 0.026397
v -0.081240 0.011932 -0.026397
v -0.050209 0.011932 -0.069107
v 0.000000 0.613251 0.326435
v -0.191874 0.613251 0.264091
v -0.310458 0.613251 0.100874
v -0.310458 0.613251 -0.100874
v -0.191874 0.613251 -0.264092
v 0.000000 0.783939 -0.352470
v 0.000000 0.783939 0.352470
v -0.207177 0.783939 0.285154
v -0.335219 0.783939 0.108919
v -0.335219 0.783939 -0.108919
v -0.207177 0.783939 -0.285154
v 0.000000 1.086388 0.516951
v -0.303856 1.086388 0.418222
v -0.491650 1.086388 0.159747
v -0.491650 1.086388 -0.159747
v -0.303856 1.086388 -0.418222
v 0.000000 1.349908 0.606504
v -0.356494 1.349908 0.490672
v -0.576820 1.349908 0.187420
v -0.576820 1.349908 -0.187420
v -0.356494 1.349908 -0.490672
v 0.000000 1.475678 0.606065
v -0.356236 1.475678 0.490317
v -0.576402 1.475678 0.187285
v -0.576402 1.475678 -0.187285
v -0.356236 1.475678 -0.490317
v 0.000000 1.694280 0.512254
v -0.301095 1.694280 0.414422
v -0.487182 1.694280 0.158295
v -0.487182 1.694280 -0.158295
v -0.301095 1.694280 -0.414422
v 0.000000 1.848797 0.372132
v -0.218734 1.848797 0.301061
v -0.353919 1.848797 0.114995
v -0.353919 1.848797 -0.114995
v -0.218734 1.848797 -0.301062
v 0.000000 1.960193 -0.111556
v 0.000000 1.960193 0.111556
v -0.065571 1.960193 0.090251
v -0.106096 1.960193 0.034473
v -0.106096 1.960193 -0.034473
v -0.065571 1.960193 -0.090251
v 0.147506 0.152676 0.203024
v 0.147506 0.514431 0.203024
v 0.238669 0.152676 0.077548
v 0.238669 0.514431 0.077548
v 0.238669 0.152676 -0.077548
v 0.238669 0.514431 -0.077548
v 0.147506 0.152676 -0.203024
v 0.147506 0.514431 -0.203024
v 0.096579 0.083801 0.132930
v 0.156269 0.083801 0.050775
v 0.156269 0.083801 -0.050775
v 0.096579 0.083801 -0.132930
v 0.050209 0.011932 0.069107
v 0.081240 0.011932 0.026397
v 0.081240 0.011932 -0.026397
v 0.050209 0.011932 -0.069107
v 0.191874 0.613251 0.264091
v 0.310458 0.613251 0.100874
v 0.310458 0.613251 -0.100874
v 0.191874 0.613251 -0.264092
v 0.207177 0.783939 0.285154
v 0.335219 0.783939 0.108919
v 0.335219 0.783939 -0.108919
v 0.207177 0.783939 -0.285154
v 0.303856 1.086388 0.418222
v 0.491650 1.086388 0.159747
v 0.491650 1.086388 -0.159747
v 0.303856 1.086388 -0.418222
v 0.356494 1.349908 0.490672
v 0.576820 1.349908 0.187420
v 0.576820 1.349908 -0.187420
v 0.356494 1.349908 -0.490672
v 0.356236 1.475678 0.490317
v 0.576402 1.475678 0.187285
v 0.576402 1.475678 -0.187285
v 0.356236 1.475678 -0.490317
v 0.301095 1.694280 0.414422
v 0.487182 1.694280 0.158295
v 0.487182 1.694280 -0.158295
v 0.301095 1.694280 -0.414422
v 0.218734 1.848797 0.301061
v 0.353919 1.848797 0.114995
v 0.353919 1.848797 -0.114995
v 0.218734 1.848797 -0.301062
v 0.065571 1.960193 0.090251
v 0.106096 1.960193 0.034473
v 0.106096 1.960193 -0.034473
v 0.065571 1.960193 -0.090251
v 0.000000 0.083801 -0.164311
v 0.000000 0.011932 -0.085421
v 0.000000 0.613251 -0.326435
v 0.000000 1.086388 -0.516951
v 0.000000 1.349908 -0.606504
v 0.000000 1.475678 -0.606065
v 0.000000 1.694280 -0.512254
v 0.000000 1.848797 -0.372132
vt 0.508260 0.020569
vt 0.518611 0.018214
vt 0.514034 0.023503
vt 0.569553 0.256059
vt 0.523077 0.084817
vt 0.569553 0.084817
vt 0.523077 0.256059
vt 0.476601 0.084817
vt 0.476601 0.256059
vt 0.430125 0.084817
vt 0.430125 0.256059
vt 0.383649 0.084817
vt 0.384309 0.256382
vt 0.430785 0.085139
vt 0.384309 0.085139
vt 0.430785 0.256382
vt 0.477261 0.085139
vt 0.477261 0.256382
vt 0.523737 0.085139
vt 0.616029 0.256059
vt 0.616029 0.084817
vt 0.570213 0.256382
vt 0.616689 0.085139
vt 0.570213 0.085139
vt 0.523737 0.256382
vt 0.499851 0.013749
vt 0.495726 0.023539
vt 0.491143 0.018220
vt 0.513741 0.023500
vt 0.506400 0.027150
vt 0.507966 0.020566
vt 0.491437 0.018223
vt 0.492279 0.028766
vt 0.485764 0.026218
vt 0.523981 0.026136
vt 0.517520 0.028706
vt 0.501776 0.020582
vt 0.509923 0.013755
vt 0.509630 0.013752
vt 0.501483 0.020579
vt 0.485470 0.026215
vt 0.491985 0.028763
vt 0.458640 0.067695
vt 0.453048 0.063632
vt 0.450912 0.057058
vt 0.471144 0.050484
vt 0.473280 0.057058
vt 0.453048 0.050484
vt 0.496020 0.023542
vt 0.500145 0.013752
vt 0.518317 0.018211
vt 0.498459 0.031344
vt 0.509363 0.028658
vt 0.511331 0.031341
vt 0.427127 0.332960
vt 0.486107 0.303949
vt 0.438551 0.291471
vt 0.506693 0.027153
vt 0.509656 0.028661
vt 0.517813 0.028709
vt 0.511625 0.031344
vt 0.500116 0.028659
vt 0.498166 0.031341
vt 0.503076 0.027150
vt 0.503369 0.027153
vt 0.656813 0.371833
vt 0.586675 0.338330
vt 0.596710 0.392017
vt 0.427786 0.335611
vt 0.350540 0.367914
vt 0.415262 0.390417
vt 0.533705 0.309670
vt 0.587334 0.340978
vt 0.578815 0.303138
vt 0.486765 0.306599
vt 0.482425 0.347591
vt 0.392324 0.267427
vt 0.369385 0.307093
vt 0.639519 0.319142
vt 0.620405 0.284430
vt 0.534818 0.346863
vt 0.481767 0.344942
vt 0.535476 0.349512
vt 0.439210 0.294121
vt 0.370045 0.309743
vt 0.440470 0.704223
vt 0.349734 0.701018
vt 0.394390 0.748864
vt 0.349880 0.365264
vt 0.536803 0.399843
vt 0.477428 0.401136
vt 0.476769 0.398487
vt 0.537462 0.402492
vt 0.414603 0.387768
vt 0.597369 0.394666
vt 0.657472 0.374481
vt 0.400948 0.496515
vt 0.309393 0.487088
vt 0.543198 0.496540
vt 0.476008 0.561931
vt 0.402397 0.570513
vt 0.543857 0.499189
vt 0.617575 0.564120
vt 0.615017 0.494131
vt 0.614357 0.491482
vt 0.401608 0.499164
vt 0.475399 0.500571
vt 0.474740 0.497922
vt 0.696590 0.478453
vt 0.406724 0.601255
vt 0.306092 0.588956
vt 0.314435 0.630266
vt 0.710975 0.568720
vt 0.543540 0.586316
vt 0.477538 0.588815
vt 0.616915 0.561471
vt 0.544060 0.559517
vt 0.710314 0.566070
vt 0.306752 0.591604
vt 0.403056 0.573161
vt 0.476667 0.564580
vt 0.544719 0.562166
vt 0.682893 0.685598
vt 0.614725 0.591888
vt 0.604130 0.648950
vt 0.315095 0.632913
vt 0.421123 0.658870
vt 0.407383 0.603903
vt 0.544200 0.588965
vt 0.615385 0.594538
vt 0.708131 0.609298
vt 0.420465 0.656222
vt 0.478197 0.591463
vt 0.540740 0.636239
vt 0.482388 0.640976
vt 0.481730 0.638328
vt 0.541399 0.638888
vt 0.604789 0.651600
vt 0.683554 0.688249
vt 0.586404 0.700916
vt 0.536289 0.684104
vt 0.640675 0.745798
vt 0.503960 0.768947
vt 0.484819 0.776451
vt 0.536947 0.686753
vt 0.543339 0.783050
vt 0.587063 0.703566
vt 0.350393 0.703665
vt 0.441128 0.706871
vt 0.488823 0.687863
vt 0.488165 0.685214
vt 0.641335 0.748450
vt 0.536554 0.830621
vt 0.536554 0.791206
vt 0.503835 0.779026
vt 0.470438 0.793677
vt 0.557754 0.801408
vt 0.524044 0.770459
vt 0.557096 0.798757
vt 0.542681 0.780399
vt 0.395048 0.751511
vt 0.485476 0.779100
vt 0.504618 0.771597
vt 0.524702 0.773109
vt 0.500410 0.028662
vt 0.524275 0.026139
vt 0.533047 0.307021
vt 0.638861 0.316494
vt 0.578157 0.300489
vt 0.383648 0.256059
vt 0.616689 0.256382
vt 0.471144 0.063632
vt 0.465552 0.067695
vt 0.458640 0.046421
vt 0.465552 0.046421
vt 0.392984 0.270078
vt 0.695930 0.475805
vt 0.310053 0.489737
vt 0.707470 0.606649
vt 0.542143 0.810913
vt 0.521922 0.779026
vt 0.489203 0.791206
vt 0.483614 0.810913
vt 0.489203 0.830620
vt 0.503835 0.842800
vt 0.521921 0.842800
vt 0.471095 0.796325
vt 0.619748 0.281782
vn 0.5188 -0.7673 0.3770
vn 0.8090 0.0000 -0.5878
vn 1.0000 0.0000 0.0000
vn 0.8090 0.0000 0.5878
vn 0.3090 0.0000 0.9511
vn -0.3090 0.0000 0.9511
vn -0.8090 0.0000 0.5878
vn -1.0000 0.0000 0.0000
vn 0.3090 0.0000 -0.9511
vn -0.3090 0.0000 -0.9511
vn -0.8090 0.0000 -0.5878
vn -0.5188 -0.7673 0.3770
vn -0.5596 -0.7221 -0.4066
vn 0.1982 -0.7673 -0.6099
vn -0.1982 -0.7673 -0.6099
vn 0.6413 -0.7673 0.0000
vn -0.6413 -0.7673 0.0000
vn -0.1982 -0.7673 0.6099
vn 0.0000 -1.0000 0.0000
vn 0.5188 -0.7673 -0.3770
vn -0.5188 -0.7673 -0.3770
vn 0.2138 -0.7221 -0.6579
vn -0.2138 -0.7221 -0.6579
vn 0.6545 -0.5877 -0.4755
vn 0.5596 -0.7221 0.4066
vn 0.2138 -0.7221 0.6579
vn -0.2138 -0.7221 0.6579
vn -0.5596 -0.7221 0.4066
vn 0.6917 -0.7221 0.0000
vn -0.6917 -0.7221 0.0000
vn 0.3058 -0.1436 0.9412
vn -0.3058 -0.1436 0.9412
vn -0.6545 -0.5877 -0.4755
vn -0.6545 -0.5877 0.4755
vn 0.2500 -0.5877 -0.7694
vn -0.2500 -0.5877 -0.7694
vn 0.8090 -0.5877 0.0000
vn -0.8090 -0.5877 0.0000
vn -0.2500 -0.5877 0.7695
vn 0.2340 0.6531 -0.7202
vn 0.3058 -0.1436 -0.9412
vn 0.8006 -0.1436 0.5817
vn -0.8006 -0.1436 0.5817
vn 0.9896 -0.1436 0.0000
vn -0.9896 -0.1436 0.0000
vn 0.8006 -0.1436 -0.5817
vn -0.8006 -0.1436 -0.5817
vn -0.3058 -0.1436 -0.9412
vn 0.2745 -0.4594 -0.8448
vn 0.7186 -0.4594 0.5221
vn 0.7698 -0.3075 -0.5593
vn -0.7698 -0.3075 -0.5593
vn 0.2745 -0.4594 0.8448
vn -0.2745 -0.4594 0.8448
vn -0.7186 -0.4594 0.5221
vn 0.8882 -0.4594 0.0000
vn -0.8882 -0.4594 0.0000
vn 0.7186 -0.4594 -0.5221
vn -0.7186 -0.4594 -0.5221
vn -0.2745 -0.4594 -0.8448
vn 0.3090 0.0033 -0.9511
vn 0.2940 -0.3075 -0.9050
vn -0.2940 -0.3075 -0.9050
vn 1.0000 0.0033 0.0000
vn 0.7698 -0.3075 0.5593
vn 0.2940 -0.3075 0.9050
vn -0.2940 -0.3075 0.9050
vn -0.7698 -0.3075 0.5593
vn 0.9515 -0.3075 0.0000
vn -0.9515 -0.3075 0.0000
vn 0.2861 0.3779 0.8805
vn -0.2861 0.3779 0.8805
vn -1.0000 0.0033 0.0000
vn 0.8090 0.0033 -0.5878
vn -0.8090 0.0033 -0.5878
vn -0.3090 0.0033 -0.9511
vn 0.2861 0.3779 -0.8805
vn 0.8090 0.0033 0.5878
vn 0.3090 0.0033 0.9511
vn -0.3090 0.0033 0.9511
vn -0.8090 0.0033 0.5878
vn 0.7490 0.3779 0.5442
vn -0.7490 0.3779 0.5442
vn 0.9259 0.3779 0.0000
vn -0.9259 0.3779 0.0000
vn 0.7490 0.3779 -0.5442
vn -0.7490 0.3779 -0.5442
vn -0.2861 0.3779 -0.8805
vn 0.6126 0.6531 0.4451
vn 0.2340 0.6531 0.7202
vn 0.3317 0.9121 -0.2410
vn -0.3317 0.9121 -0.2410
vn -0.2340 0.6531 0.7202
vn -0.6126 0.6531 0.4451
vn 0.7573 0.6531 0.0000
vn -0.7573 0.6531 0.0000
vn 0.6126 0.6531 -0.4451
vn -0.6126 0.6531 -0.4451
vn -0.2340 0.6531 -0.7202
vn 0.0000 1.0000 0.0000
vn 0.1267 0.9121 -0.3899
vn -0.1267 0.9121 -0.3899
vn 0.3317 0.9121 0.2410
vn 0.1267 0.9121 0.3899
vn -0.1267 0.9121 0.3899
vn -0.3317 0.9121 0.2410
vn 0.4100 0.9121 0.0000
vn -0.4100 0.9121 0.0000
vn 0.5596 -0.7221 -0.4066
vn 0.1982 -0.7673 0.6099
vn 0.6545 -0.5877 0.4755
vn 0.2500 -0.5877 0.7695
vn -0.2500 -0.5877 0.7694
vn 0.2500 -0.5877 0.7694
s off
f 74/1/1 65/2/1 73/3/1
f 72/4/2 69/5/2 71/6/2
f 70/7/3 67/8/3 69/5/3
f 68/9/4 65/10/4 67/8/4
f 66/11/5 3/12/5 65/10/5
f 4/13/6 5/14/6 3/15/6
f 6/16/7 7/17/7 5/14/7
f 8/18/8 9/19/8 7/17/8
f 2/20/9 71/6/9 1/21/9
f 12/22/10 1/23/10 11/24/10
f 10/25/11 11/24/11 9/19/11
f 7/26/12 14/27/12 5/28/12
f 17/29/13 21/30/13 16/31/13
f 71/32/14 113/33/14 1/34/14
f 17/29/15 1/35/15 113/36/15
f 75/37/16 67/38/16 74/1/16
f 9/39/17 15/40/17 7/26/17
f 3/41/18 14/27/18 13/42/18
f 78/43/19 77/44/19 18/45/19
f 22/46/19 114/47/19 19/48/19
f 76/49/20 69/50/20 75/37/20
f 11/51/21 16/31/21 9/39/21
f 76/49/22 114/52/22 113/33/22
f 22/53/23 113/36/23 114/54/23
f 84/55/24 70/56/24 72/57/24
f 78/58/25 73/3/25 77/59/25
f 77/59/26 13/60/26 18/61/26
f 13/42/27 19/62/27 18/63/27
f 14/27/28 20/64/28 19/62/28
f 79/65/29 74/1/29 78/58/29
f 15/40/30 21/30/30 20/64/30
f 29/66/31 81/67/31 85/68/31
f 24/69/32 29/70/32 30/71/32
f 10/72/33 27/73/33 12/74/33
f 8/75/34 24/69/34 25/76/34
f 84/55/35 2/77/35 115/78/35
f 12/74/36 115/79/36 2/80/36
f 82/81/37 70/56/37 83/82/37
f 10/72/38 25/76/38 26/83/38
f 6/84/39 23/85/39 24/69/39
f 108/86/40 119/87/40 120/88/40
f 28/89/41 84/55/41 115/78/41
f 86/90/42 81/67/42 82/81/42
f 24/69/43 31/91/43 25/76/43
f 86/90/44 83/82/44 87/92/44
f 25/76/45 32/93/45 26/83/45
f 87/92/46 84/55/46 88/94/46
f 26/83/47 33/95/47 27/73/47
f 27/73/48 28/96/48 115/79/48
f 92/97/49 28/89/49 116/98/49
f 90/99/50 85/68/50 86/90/50
f 95/100/51 92/97/51 96/101/51
f 37/102/52 43/103/52 38/104/52
f 89/105/53 29/66/53 85/68/53
f 29/70/54 35/106/54 30/71/54
f 30/71/55 36/107/55 31/91/55
f 90/99/56 87/92/56 91/108/56
f 31/91/57 37/102/57 32/93/57
f 91/108/58 88/94/58 92/97/58
f 32/93/59 38/104/59 33/95/59
f 33/95/60 116/109/60 28/96/60
f 100/110/61 117/111/61 118/112/61
f 117/111/62 92/97/62 116/98/62
f 38/104/63 117/113/63 116/109/63
f 98/114/64 95/100/64 99/115/64
f 93/116/65 90/99/65 94/117/65
f 39/118/66 89/105/66 93/116/66
f 35/106/67 39/119/67 40/120/67
f 36/107/68 40/120/68 41/121/68
f 95/100/69 90/99/69 91/108/69
f 37/102/70 41/121/70 42/122/70
f 49/123/71 97/124/71 101/125/71
f 44/126/72 50/127/72 45/128/72
f 41/121/73 47/129/73 42/122/73
f 99/115/74 96/101/74 100/110/74
f 43/103/75 47/129/75 48/130/75
f 43/103/76 118/131/76 117/113/76
f 104/132/77 118/112/77 119/87/77
f 98/114/78 93/116/78 94/117/78
f 97/124/79 39/118/79 93/116/79
f 39/119/80 45/128/80 40/120/80
f 40/120/81 46/133/81 41/121/81
f 101/125/82 98/114/82 102/134/82
f 45/128/83 51/135/83 46/133/83
f 102/134/84 99/115/84 103/136/84
f 46/133/85 52/137/85 47/129/85
f 103/136/86 100/110/86 104/132/86
f 47/129/87 53/138/87 48/130/87
f 48/130/88 119/139/88 118/131/88
f 105/140/89 102/134/89 106/141/89
f 54/142/90 101/125/90 105/140/90
f 111/143/91 108/86/91 112/144/91
f 57/145/92 64/146/92 58/147/92
f 49/148/93 55/149/93 50/127/93
f 50/127/94 56/150/94 51/135/94
f 106/141/95 103/136/95 107/151/95
f 51/135/96 57/145/96 52/137/96
f 107/151/97 104/132/97 108/86/97
f 53/138/98 57/145/98 58/147/98
f 119/139/99 58/147/99 120/152/99
f 112/153/100 64/154/100 62/155/100
f 112/144/101 120/88/101 59/156/101
f 120/152/102 64/146/102 59/157/102
f 110/158/103 105/140/103 106/141/103
f 60/159/104 105/140/104 109/160/104
f 54/161/105 61/162/105 55/149/105
f 55/149/106 62/163/106 56/150/106
f 110/158/107 107/151/107 111/143/107
f 56/150/108 63/164/108 57/145/108
f 80/165/109 75/37/109 79/65/109
f 73/3/110 3/166/110 13/60/110
f 81/67/111 68/167/111 82/81/111
f 23/168/112 66/169/112 81/67/112
f 74/1/1 67/38/1 65/2/1
f 72/4/2 70/7/2 69/5/2
f 70/7/3 68/9/3 67/8/3
f 68/9/4 66/11/4 65/10/4
f 66/11/5 4/170/5 3/12/5
f 4/13/6 6/16/6 5/14/6
f 6/16/7 8/18/7 7/17/7
f 8/18/8 10/25/8 9/19/8
f 2/20/9 72/4/9 71/6/9
f 12/22/10 2/171/10 1/23/10
f 10/25/11 12/22/11 11/24/11
f 7/26/12 15/40/12 14/27/12
f 17/29/13 22/53/13 21/30/13
f 71/32/14 76/49/14 113/33/14
f 17/29/15 11/51/15 1/35/15
f 75/37/16 69/50/16 67/38/16
f 9/39/17 16/31/17 15/40/17
f 3/41/18 5/28/18 14/27/18
f 18/45/19 114/47/19 78/43/19
f 114/47/19 80/172/19 78/43/19
f 80/172/19 79/173/19 78/43/19
f 114/47/19 18/45/19 19/48/19
f 19/48/19 20/174/19 21/175/19
f 21/175/19 22/46/19 19/48/19
f 76/49/20 71/32/20 69/50/20
f 11/51/21 17/29/21 16/31/21
f 76/49/22 80/165/22 114/52/22
f 22/53/23 17/29/23 113/36/23
f 84/55/24 83/82/24 70/56/24
f 78/58/25 74/1/25 73/3/25
f 77/59/26 73/3/26 13/60/26
f 13/42/27 14/27/27 19/62/27
f 14/27/28 15/40/28 20/64/28
f 79/65/29 75/37/29 74/1/29
f 15/40/30 16/31/30 21/30/30
f 29/66/31 23/168/31 81/67/31
f 24/69/32 23/85/32 29/70/32
f 10/72/33 26/83/33 27/73/33
f 8/75/34 6/84/34 24/69/34
f 84/55/35 72/57/35 2/77/35
f 12/74/36 27/73/36 115/79/36
f 82/81/37 68/167/37 70/56/37
f 10/72/38 8/75/38 25/76/38
f 6/84/113 4/176/113 23/85/113
f 108/86/40 104/132/40 119/87/40
f 28/89/41 88/94/41 84/55/41
f 86/90/42 85/68/42 81/67/42
f 24/69/43 30/71/43 31/91/43
f 86/90/44 82/81/44 83/82/44
f 25/76/45 31/91/45 32/93/45
f 87/92/46 83/82/46 84/55/46
f 26/83/47 32/93/47 33/95/47
f 27/73/48 33/95/48 28/96/48
f 92/97/49 88/94/49 28/89/49
f 90/99/50 89/105/50 85/68/50
f 95/100/51 91/108/51 92/97/51
f 37/102/52 42/122/52 43/103/52
f 89/105/53 34/177/53 29/66/53
f 29/70/54 34/178/54 35/106/54
f 30/71/55 35/106/55 36/107/55
f 90/99/56 86/90/56 87/92/56
f 31/91/57 36/107/57 37/102/57
f 91/108/58 87/92/58 88/94/58
f 32/93/59 37/102/59 38/104/59
f 33/95/60 38/104/60 116/109/60
f 100/110/61 96/101/61 117/111/61
f 117/111/62 96/101/62 92/97/62
f 38/104/63 43/103/63 117/113/63
f 98/114/64 94/117/64 95/100/64
f 93/116/65 89/105/65 90/99/65
f 39/118/66 34/177/66 89/105/66
f 35/106/67 34/178/67 39/119/67
f 36/107/68 35/106/68 40/120/68
f 95/100/69 94/117/69 90/99/69
f 37/102/70 36/107/70 41/121/70
f 49/123/71 44/179/71 97/124/71
f 44/126/72 49/148/72 50/127/72
f 41/121/73 46/133/73 47/129/73
f 99/115/74 95/100/74 96/101/74
f 43/103/75 42/122/75 47/129/75
f 43/103/76 48/130/76 118/131/76
f 104/132/77 100/110/77 118/112/77
f 98/114/78 97/124/78 93/116/78
f 97/124/79 44/179/79 39/118/79
f 39/119/80 44/126/80 45/128/80
f 40/120/81 45/128/81 46/133/81
f 101/125/82 97/124/82 98/114/82
f 45/128/83 50/127/83 51/135/83
f 102/134/84 98/114/84 99/115/84
f 46/133/85 51/135/85 52/137/85
f 103/136/86 99/115/86 100/110/86
f 47/129/87 52/137/87 53/138/87
f 48/130/88 53/138/88 119/139/88
f 105/140/89 101/125/89 102/134/89
f 54/142/90 49/123/90 101/125/90
f 111/143/91 107/151/91 108/86/91
f 57/145/92 63/164/92 64/146/92
f 49/148/93 54/161/93 55/149/93
f 50/127/94 55/149/94 56/150/94
f 106/141/95 102/134/95 103/136/95
f 51/135/96 56/150/96 57/145/96
f 107/151/97 103/136/97 104/132/97
f 53/138/98 52/137/98 57/145/98
f 119/139/99 53/138/99 58/147/99
f 112/153/100 59/180/100 64/154/100
f 64/154/100 63/181/100 62/155/100
f 62/155/100 61/182/100 60/183/100
f 60/183/100 109/184/100 62/155/100
f 109/184/100 110/185/100 62/155/100
f 110/185/100 111/186/100 62/155/100
f 111/186/100 112/153/100 62/155/100
f 112/144/101 108/86/101 120/88/101
f 120/152/102 58/147/102 64/146/102
f 110/158/103 109/160/103 105/140/103
f 60/159/104 54/142/104 105/140/104
f 54/161/105 60/187/105 61/162/105
f 55/149/106 61/162/106 62/163/106
f 110/158/107 106/141/107 107/151/107
f 56/150/108 62/163/108 63/164/108
f 80/165/109 76/49/109 75/37/109
f 73/3/110 65/2/110 3/166/110
f 81/67/111 66/169/111 68/167/111
f 23/168/114 4/188/114 66/169/114
